<?xml version="1.0" standalone="no"?>
<!DOCTYPE svg PUBLIC "-//W3C//DTD SVG 20010904//EN"
 "http://www.w3.org/TR/2001/REC-SVG-20010904/DTD/svg10.dtd">
<svg version="1.0" xmlns="http://www.w3.org/2000/svg"
 width="700.000000pt" height="700.000000pt" viewBox="0 0 700.000000 700.000000"
 preserveAspectRatio="xMidYMid meet">
<metadata>
Created by potrace 1.11, written by Peter Selinger 2001-2013
</metadata>
<g transform="translate(0.000000,700.000000) scale(0.100000,-0.100000)"
fill="#000000" stroke="none">
<path d="M1063 6114 c-234 -40 -434 -240 -470 -471 -4 -26 -7 -1000 -7 -2163
l0 -2115 21 -67 c60 -192 198 -333 388 -395 l80 -26 2115 -2 c1986 -1 2119 0
2185 17 157 39 263 110 349 233 97 138 108 198 110 592 0 171 4 314 8 318 4 4
134 8 290 9 l283 1 2 275 c0 151 -1 282 -3 291 -4 13 -39 15 -285 15 -155 -1
-284 1 -288 4 -4 3 -7 134 -7 293 l0 287 291 0 291 0 0 290 1 290 -292 0 -291
0 0 292 1 293 285 1 c157 1 288 2 291 3 3 0 5 130 5 289 l-1 287 -270 2 c-148
1 -279 2 -291 2 -20 1 -20 5 -20 304 -1 166 -4 326 -7 355 -24 182 -150 362
-311 441 -141 69 46 64 -2283 65 -1556 1 -2120 -1 -2170 -10z m4185 -2613 l2
-2041 -2042 0 -2043 0 1 2038 0 2037 45 5 c24 3 942 4 2039 3 l1995 -1 3
-2041z"/>
<path d="M1750 4229 l0 -729 730 0 730 0 0 729 0 730 -730 -1 -730 0 0 -729z"/>
<path d="M3500 4521 l0 -437 578 1 c317 1 580 3 583 3 3 1 6 197 5 435 l-1
432 -582 2 -583 2 0 -438z"/>
<path d="M3500 2916 l0 -874 583 0 584 0 0 874 0 874 -584 0 -583 0 0 -874z"/>
<path d="M1750 2626 l0 -584 730 0 730 0 0 584 0 584 -730 0 -730 0 0 -584z"/>
</g>
</svg>
